<mxfile host="app.diagrams.net" agent="Mozilla/5.0 (Windows NT 10.0; Win64; x64) AppleWebKit/537.36 (KHTML, like Gecko) Chrome/130.0.0.0 Safari/537.36" version="24.8.3">
  <diagram name="Página-1" id="cR1xWYi6bnq-wN1eQGpk">
    <mxGraphModel dx="1195" dy="650" grid="1" gridSize="10" guides="1" tooltips="1" connect="1" arrows="1" fold="1" page="1" pageScale="1" pageWidth="827" pageHeight="1169" math="0" shadow="0">
      <root>
        <mxCell id="0" />
        <mxCell id="1" parent="0" />
        <mxCell id="F4EXB1P1e2HLuctGTOLq-3" value="" style="edgeStyle=orthogonalEdgeStyle;rounded=0;orthogonalLoop=1;jettySize=auto;html=1;" edge="1" parent="1" source="F4EXB1P1e2HLuctGTOLq-1" target="F4EXB1P1e2HLuctGTOLq-2">
          <mxGeometry relative="1" as="geometry" />
        </mxCell>
        <mxCell id="F4EXB1P1e2HLuctGTOLq-1" value="inicio" style="ellipse;whiteSpace=wrap;html=1;" vertex="1" parent="1">
          <mxGeometry x="40" y="40" width="80" height="80" as="geometry" />
        </mxCell>
        <mxCell id="F4EXB1P1e2HLuctGTOLq-10" style="edgeStyle=orthogonalEdgeStyle;rounded=0;orthogonalLoop=1;jettySize=auto;html=1;" edge="1" parent="1" source="F4EXB1P1e2HLuctGTOLq-2">
          <mxGeometry relative="1" as="geometry">
            <mxPoint x="390" y="80" as="targetPoint" />
          </mxGeometry>
        </mxCell>
        <mxCell id="F4EXB1P1e2HLuctGTOLq-49" value="" style="edgeStyle=orthogonalEdgeStyle;rounded=0;orthogonalLoop=1;jettySize=auto;html=1;" edge="1" parent="1" source="F4EXB1P1e2HLuctGTOLq-2" target="F4EXB1P1e2HLuctGTOLq-48">
          <mxGeometry relative="1" as="geometry" />
        </mxCell>
        <mxCell id="F4EXB1P1e2HLuctGTOLq-50" value="" style="edgeStyle=orthogonalEdgeStyle;rounded=0;orthogonalLoop=1;jettySize=auto;html=1;" edge="1" parent="1" source="F4EXB1P1e2HLuctGTOLq-2" target="F4EXB1P1e2HLuctGTOLq-48">
          <mxGeometry relative="1" as="geometry" />
        </mxCell>
        <mxCell id="F4EXB1P1e2HLuctGTOLq-52" style="edgeStyle=orthogonalEdgeStyle;rounded=0;orthogonalLoop=1;jettySize=auto;html=1;" edge="1" parent="1" source="F4EXB1P1e2HLuctGTOLq-2" target="F4EXB1P1e2HLuctGTOLq-51">
          <mxGeometry relative="1" as="geometry" />
        </mxCell>
        <mxCell id="F4EXB1P1e2HLuctGTOLq-2" value="filtragem de ativos&amp;nbsp;" style="whiteSpace=wrap;html=1;" vertex="1" parent="1">
          <mxGeometry x="180" y="50" width="120" height="60" as="geometry" />
        </mxCell>
        <mxCell id="F4EXB1P1e2HLuctGTOLq-6" value="botões" style="swimlane;fontStyle=0;childLayout=stackLayout;horizontal=1;startSize=30;horizontalStack=0;resizeParent=1;resizeParentMax=0;resizeLast=0;collapsible=1;marginBottom=0;whiteSpace=wrap;html=1;" vertex="1" parent="1">
          <mxGeometry x="390" y="20" width="140" height="150" as="geometry" />
        </mxCell>
        <mxCell id="F4EXB1P1e2HLuctGTOLq-7" value="ativar" style="text;strokeColor=none;fillColor=none;align=left;verticalAlign=middle;spacingLeft=4;spacingRight=4;overflow=hidden;points=[[0,0.5],[1,0.5]];portConstraint=eastwest;rotatable=0;whiteSpace=wrap;html=1;" vertex="1" parent="F4EXB1P1e2HLuctGTOLq-6">
          <mxGeometry y="30" width="140" height="30" as="geometry" />
        </mxCell>
        <mxCell id="F4EXB1P1e2HLuctGTOLq-16" style="edgeStyle=orthogonalEdgeStyle;rounded=0;orthogonalLoop=1;jettySize=auto;html=1;" edge="1" parent="F4EXB1P1e2HLuctGTOLq-6" source="F4EXB1P1e2HLuctGTOLq-8">
          <mxGeometry relative="1" as="geometry">
            <mxPoint x="230" y="75" as="targetPoint" />
          </mxGeometry>
        </mxCell>
        <mxCell id="F4EXB1P1e2HLuctGTOLq-8" value="inativar&amp;nbsp;" style="text;strokeColor=none;fillColor=none;align=left;verticalAlign=middle;spacingLeft=4;spacingRight=4;overflow=hidden;points=[[0,0.5],[1,0.5]];portConstraint=eastwest;rotatable=0;whiteSpace=wrap;html=1;" vertex="1" parent="F4EXB1P1e2HLuctGTOLq-6">
          <mxGeometry y="60" width="140" height="30" as="geometry" />
        </mxCell>
        <mxCell id="F4EXB1P1e2HLuctGTOLq-9" value="deletar" style="text;strokeColor=none;fillColor=none;align=left;verticalAlign=middle;spacingLeft=4;spacingRight=4;overflow=hidden;points=[[0,0.5],[1,0.5]];portConstraint=eastwest;rotatable=0;whiteSpace=wrap;html=1;" vertex="1" parent="F4EXB1P1e2HLuctGTOLq-6">
          <mxGeometry y="90" width="140" height="30" as="geometry" />
        </mxCell>
        <mxCell id="F4EXB1P1e2HLuctGTOLq-11" value="alterar" style="text;strokeColor=none;fillColor=none;align=left;verticalAlign=middle;spacingLeft=4;spacingRight=4;overflow=hidden;points=[[0,0.5],[1,0.5]];portConstraint=eastwest;rotatable=0;whiteSpace=wrap;html=1;" vertex="1" parent="F4EXB1P1e2HLuctGTOLq-6">
          <mxGeometry y="120" width="140" height="30" as="geometry" />
        </mxCell>
        <mxCell id="F4EXB1P1e2HLuctGTOLq-20" value="&lt;font style=&quot;font-size: 13px;&quot;&gt;sim&lt;/font&gt;" style="edgeStyle=orthogonalEdgeStyle;rounded=0;orthogonalLoop=1;jettySize=auto;html=1;" edge="1" parent="1" source="F4EXB1P1e2HLuctGTOLq-14" target="F4EXB1P1e2HLuctGTOLq-19">
          <mxGeometry relative="1" as="geometry" />
        </mxCell>
        <mxCell id="F4EXB1P1e2HLuctGTOLq-24" style="edgeStyle=orthogonalEdgeStyle;rounded=0;orthogonalLoop=1;jettySize=auto;html=1;entryX=0.5;entryY=0;entryDx=0;entryDy=0;" edge="1" parent="1" source="F4EXB1P1e2HLuctGTOLq-14" target="F4EXB1P1e2HLuctGTOLq-23">
          <mxGeometry relative="1" as="geometry" />
        </mxCell>
        <mxCell id="F4EXB1P1e2HLuctGTOLq-25" value="&lt;font style=&quot;font-size: 13px;&quot;&gt;não&lt;/font&gt;" style="edgeLabel;html=1;align=center;verticalAlign=middle;resizable=0;points=[];" vertex="1" connectable="0" parent="F4EXB1P1e2HLuctGTOLq-24">
          <mxGeometry x="0.0071" y="-1" relative="1" as="geometry">
            <mxPoint as="offset" />
          </mxGeometry>
        </mxCell>
        <mxCell id="F4EXB1P1e2HLuctGTOLq-14" value="deseja realizar a ação" style="rhombus;whiteSpace=wrap;html=1;" vertex="1" parent="1">
          <mxGeometry x="620" y="55" width="80" height="80" as="geometry" />
        </mxCell>
        <mxCell id="F4EXB1P1e2HLuctGTOLq-15" style="edgeStyle=orthogonalEdgeStyle;rounded=0;orthogonalLoop=1;jettySize=auto;html=1;entryX=0;entryY=0.5;entryDx=0;entryDy=0;" edge="1" parent="1" source="F4EXB1P1e2HLuctGTOLq-7" target="F4EXB1P1e2HLuctGTOLq-14">
          <mxGeometry relative="1" as="geometry" />
        </mxCell>
        <mxCell id="F4EXB1P1e2HLuctGTOLq-17" style="edgeStyle=orthogonalEdgeStyle;rounded=0;orthogonalLoop=1;jettySize=auto;html=1;entryX=0;entryY=0.5;entryDx=0;entryDy=0;" edge="1" parent="1" source="F4EXB1P1e2HLuctGTOLq-9" target="F4EXB1P1e2HLuctGTOLq-14">
          <mxGeometry relative="1" as="geometry" />
        </mxCell>
        <mxCell id="F4EXB1P1e2HLuctGTOLq-43" style="edgeStyle=orthogonalEdgeStyle;rounded=0;orthogonalLoop=1;jettySize=auto;html=1;entryX=0.5;entryY=0;entryDx=0;entryDy=0;" edge="1" parent="1" source="F4EXB1P1e2HLuctGTOLq-19" target="F4EXB1P1e2HLuctGTOLq-42">
          <mxGeometry relative="1" as="geometry" />
        </mxCell>
        <mxCell id="F4EXB1P1e2HLuctGTOLq-19" value="executar a ação&amp;nbsp;" style="whiteSpace=wrap;html=1;" vertex="1" parent="1">
          <mxGeometry x="530" y="270" width="120" height="60" as="geometry" />
        </mxCell>
        <mxCell id="F4EXB1P1e2HLuctGTOLq-23" value="fechar modal" style="rounded=0;whiteSpace=wrap;html=1;" vertex="1" parent="1">
          <mxGeometry x="700" y="270" width="120" height="60" as="geometry" />
        </mxCell>
        <mxCell id="F4EXB1P1e2HLuctGTOLq-31" value="" style="edgeStyle=orthogonalEdgeStyle;rounded=0;orthogonalLoop=1;jettySize=auto;html=1;" edge="1" parent="1" source="F4EXB1P1e2HLuctGTOLq-29" target="F4EXB1P1e2HLuctGTOLq-30">
          <mxGeometry relative="1" as="geometry" />
        </mxCell>
        <mxCell id="F4EXB1P1e2HLuctGTOLq-29" value="abrir modal com as informações do ativo&amp;nbsp;" style="rounded=0;whiteSpace=wrap;html=1;" vertex="1" parent="1">
          <mxGeometry x="310" y="270" width="120" height="60" as="geometry" />
        </mxCell>
        <mxCell id="F4EXB1P1e2HLuctGTOLq-28" style="edgeStyle=orthogonalEdgeStyle;rounded=0;orthogonalLoop=1;jettySize=auto;html=1;" edge="1" parent="1" source="F4EXB1P1e2HLuctGTOLq-11" target="F4EXB1P1e2HLuctGTOLq-29">
          <mxGeometry relative="1" as="geometry">
            <mxPoint x="400" y="250" as="targetPoint" />
          </mxGeometry>
        </mxCell>
        <mxCell id="F4EXB1P1e2HLuctGTOLq-34" value="" style="edgeStyle=orthogonalEdgeStyle;rounded=0;orthogonalLoop=1;jettySize=auto;html=1;" edge="1" parent="1" source="F4EXB1P1e2HLuctGTOLq-30" target="F4EXB1P1e2HLuctGTOLq-33">
          <mxGeometry relative="1" as="geometry" />
        </mxCell>
        <mxCell id="F4EXB1P1e2HLuctGTOLq-38" value="sim" style="edgeLabel;html=1;align=center;verticalAlign=middle;resizable=0;points=[];" vertex="1" connectable="0" parent="F4EXB1P1e2HLuctGTOLq-34">
          <mxGeometry x="-0.1176" y="3" relative="1" as="geometry">
            <mxPoint as="offset" />
          </mxGeometry>
        </mxCell>
        <mxCell id="F4EXB1P1e2HLuctGTOLq-40" value="" style="edgeStyle=orthogonalEdgeStyle;rounded=0;orthogonalLoop=1;jettySize=auto;html=1;" edge="1" parent="1" source="F4EXB1P1e2HLuctGTOLq-30" target="F4EXB1P1e2HLuctGTOLq-39">
          <mxGeometry relative="1" as="geometry" />
        </mxCell>
        <mxCell id="F4EXB1P1e2HLuctGTOLq-47" value="não" style="edgeLabel;html=1;align=center;verticalAlign=middle;resizable=0;points=[];" vertex="1" connectable="0" parent="F4EXB1P1e2HLuctGTOLq-40">
          <mxGeometry x="-0.2333" y="2" relative="1" as="geometry">
            <mxPoint as="offset" />
          </mxGeometry>
        </mxCell>
        <mxCell id="F4EXB1P1e2HLuctGTOLq-30" value="alterar informações&amp;nbsp;" style="rhombus;whiteSpace=wrap;html=1;rounded=0;" vertex="1" parent="1">
          <mxGeometry x="325" y="370" width="90" height="90" as="geometry" />
        </mxCell>
        <mxCell id="F4EXB1P1e2HLuctGTOLq-36" value="" style="edgeStyle=orthogonalEdgeStyle;rounded=0;orthogonalLoop=1;jettySize=auto;html=1;" edge="1" parent="1" source="F4EXB1P1e2HLuctGTOLq-33" target="F4EXB1P1e2HLuctGTOLq-35">
          <mxGeometry relative="1" as="geometry" />
        </mxCell>
        <mxCell id="F4EXB1P1e2HLuctGTOLq-37" value="não" style="edgeLabel;html=1;align=center;verticalAlign=middle;resizable=0;points=[];" vertex="1" connectable="0" parent="F4EXB1P1e2HLuctGTOLq-36">
          <mxGeometry x="-0.2099" y="1" relative="1" as="geometry">
            <mxPoint as="offset" />
          </mxGeometry>
        </mxCell>
        <mxCell id="F4EXB1P1e2HLuctGTOLq-45" value="" style="edgeStyle=orthogonalEdgeStyle;rounded=0;orthogonalLoop=1;jettySize=auto;html=1;" edge="1" parent="1" source="F4EXB1P1e2HLuctGTOLq-33" target="F4EXB1P1e2HLuctGTOLq-44">
          <mxGeometry relative="1" as="geometry" />
        </mxCell>
        <mxCell id="F4EXB1P1e2HLuctGTOLq-46" value="sim" style="edgeLabel;html=1;align=center;verticalAlign=middle;resizable=0;points=[];" vertex="1" connectable="0" parent="F4EXB1P1e2HLuctGTOLq-45">
          <mxGeometry x="-0.25" y="-2" relative="1" as="geometry">
            <mxPoint as="offset" />
          </mxGeometry>
        </mxCell>
        <mxCell id="F4EXB1P1e2HLuctGTOLq-33" value="&lt;font style=&quot;font-size: 10px;&quot;&gt;validar os dados com as mesmas regras do cadastro&amp;nbsp;&lt;/font&gt;" style="rhombus;whiteSpace=wrap;html=1;rounded=0;" vertex="1" parent="1">
          <mxGeometry x="510" y="445" width="95" height="100" as="geometry" />
        </mxCell>
        <mxCell id="F4EXB1P1e2HLuctGTOLq-35" value="informa ao usuario e volta para o modal&amp;nbsp;" style="whiteSpace=wrap;html=1;rounded=0;" vertex="1" parent="1">
          <mxGeometry x="690" y="465" width="120" height="60" as="geometry" />
        </mxCell>
        <mxCell id="F4EXB1P1e2HLuctGTOLq-39" value="exibe as informaçoes do usuario&amp;nbsp;" style="whiteSpace=wrap;html=1;rounded=0;" vertex="1" parent="1">
          <mxGeometry x="310" y="510" width="120" height="60" as="geometry" />
        </mxCell>
        <mxCell id="F4EXB1P1e2HLuctGTOLq-42" value="informa ao usuario e fecha modal" style="rounded=0;whiteSpace=wrap;html=1;" vertex="1" parent="1">
          <mxGeometry x="530" y="360" width="120" height="60" as="geometry" />
        </mxCell>
        <mxCell id="F4EXB1P1e2HLuctGTOLq-44" value="realiza a alteraçao" style="whiteSpace=wrap;html=1;rounded=0;" vertex="1" parent="1">
          <mxGeometry x="497.5" y="585" width="120" height="60" as="geometry" />
        </mxCell>
        <mxCell id="F4EXB1P1e2HLuctGTOLq-48" value="botão que abre um modal para registrar movimentações" style="whiteSpace=wrap;html=1;" vertex="1" parent="1">
          <mxGeometry x="190" y="180" width="120" height="60" as="geometry" />
        </mxCell>
        <mxCell id="F4EXB1P1e2HLuctGTOLq-51" value="pesquisa de ativos" style="rounded=0;whiteSpace=wrap;html=1;" vertex="1" parent="1">
          <mxGeometry x="60" y="180" width="120" height="60" as="geometry" />
        </mxCell>
      </root>
    </mxGraphModel>
  </diagram>
</mxfile>
